<?xml version="1.0" encoding="utf-8"?>
<!-- Generator: Adobe Illustrator 21.0.0, SVG Export Plug-In . SVG Version: 6.00 Build 0)  -->
<svg version="1.1" id="Layer_1" xmlns="http://www.w3.org/2000/svg" xmlns:xlink="http://www.w3.org/1999/xlink" x="0px" y="0px"
	 viewBox="0 0 683 278.6" style="enable-background:new 0 0 683 278.6;" xml:space="preserve">
<style type="text/css">
	.st0{fill:url(#SVGID_1_);}
	.st1{fill:url(#SVGID_2_);}
	.st2{opacity:0.1;fill:#FFFFFF;enable-background:new    ;}
	.st3{fill:url(#SVGID_3_);}
	.st4{fill:url(#SVGID_4_);}
	.st5{opacity:0.7;fill:#FFFFFF;enable-background:new    ;}
	.st6{opacity:0.4;}
	.st7{fill:#FFFFFF;}
	.st8{opacity:0.4;fill:#FFFFFF;enable-background:new    ;}
	.st9{opacity:0.15;}
	.st10{fill:url(#SVGID_5_);}
	.st11{fill:url(#SVGID_6_);}
	.st12{fill:url(#SVGID_7_);}
	.st13{fill:url(#SVGID_8_);}
	.st14{fill:url(#SVGID_9_);}
	.st15{fill:url(#SVGID_10_);}
	.st16{fill:url(#SVGID_11_);}
	.st17{fill:url(#SVGID_12_);}
	.st18{opacity:5.000000e-02;fill:#FFFFFF;enable-background:new    ;}
	.st19{fill:url(#SVGID_13_);}
	.st20{fill:url(#SVGID_14_);}
	.st21{fill:url(#SVGID_15_);}
	.st22{fill:url(#SVGID_16_);}
	.st23{fill:url(#SVGID_17_);}
	.st24{fill:url(#SVGID_18_);}
	.st25{fill:url(#SVGID_19_);}
	.st26{fill:url(#SVGID_20_);}
	.st27{fill:url(#SVGID_21_);}
	.st28{fill:none;stroke:url(#SVGID_22_);stroke-linecap:round;stroke-miterlimit:10;}
	.st29{fill:url(#SVGID_23_);}
	.st30{fill:url(#SVGID_24_);}
	.st31{fill:url(#SVGID_25_);}
	.st32{fill:url(#SVGID_26_);}
	.st33{fill:url(#SVGID_27_);}
	.st34{fill:url(#SVGID_28_);}
	.st35{fill:url(#SVGID_29_);}
	.st36{fill:url(#SVGID_30_);}
	.st37{fill:url(#SVGID_31_);}
	.st38{fill:url(#SVGID_32_);}
	.st39{fill:url(#SVGID_33_);}
	.st40{fill:url(#SVGID_34_);}
	.st41{fill:url(#SVGID_35_);}
	.st42{fill:url(#SVGID_36_);}
	.st43{fill:url(#SVGID_37_);}
	.st44{fill:url(#SVGID_38_);}
	.st45{fill:url(#SVGID_39_);}
	.st46{fill:url(#SVGID_40_);}
	.st47{fill:url(#SVGID_41_);}
	.st48{fill:none;stroke:url(#SVGID_42_);stroke-width:1.5;stroke-linecap:round;stroke-miterlimit:10;}
	.st49{fill:#929DA1;}
	.st50{fill:url(#SVGID_43_);}
	.st51{fill:url(#SVGID_44_);}
	.st52{fill:url(#SVGID_45_);}
	.st53{fill:url(#SVGID_46_);}
	.st54{fill:url(#SVGID_47_);}
	.st55{fill:url(#SVGID_48_);}
	.st56{fill:url(#SVGID_49_);}
	.st57{fill:url(#SVGID_50_);}
	.st58{fill:url(#SVGID_51_);}
	.st59{fill:url(#SVGID_52_);}
	.st60{fill:url(#SVGID_53_);}
	.st61{fill:url(#SVGID_54_);}
	.st62{fill:url(#SVGID_55_);}
	.st63{fill:url(#SVGID_56_);}
	.st64{fill:url(#SVGID_57_);}
	.st65{fill:url(#SVGID_58_);}
	.st66{fill:url(#SVGID_59_);}
	.st67{fill:url(#SVGID_60_);}
	.st68{opacity:0.5;fill:url(#SVGID_61_);enable-background:new    ;}
	.st69{opacity:0.5;fill:url(#SVGID_62_);enable-background:new    ;}
	.st70{fill:url(#SVGID_63_);}
	.st71{fill:url(#SVGID_64_);}
	.st72{fill:url(#SVGID_65_);}
	.st73{fill:url(#SVGID_66_);}
	.st74{fill:url(#SVGID_67_);}
	.st75{fill:url(#SVGID_68_);}
	.st76{fill:url(#SVGID_69_);}
</style>
<g>
	
		<linearGradient id="SVGID_1_" gradientUnits="userSpaceOnUse" x1="207.3747" y1="-253.2183" x2="207.3747" y2="-240.6463" gradientTransform="matrix(0.9956 9.380000e-02 9.380000e-02 -0.9956 22.4278 -226.5406)">
		<stop  offset="0" style="stop-color:#FFA084"/>
		<stop  offset="1" style="stop-color:#FFD35C"/>
	</linearGradient>
	<path class="st0" d="M220.6,31l-28-2.6c-4-0.4-7.5,2.5-7.9,6.5l0,0c-0.4,4,2.5,7.5,6.5,7.9l28,2.6c4,0.4,7.5-2.5,7.9-6.5l0,0
		C227.5,34.9,224.6,31.3,220.6,31z"/>
	
		<linearGradient id="SVGID_2_" gradientUnits="userSpaceOnUse" x1="217.8616" y1="-252.3114" x2="217.8616" y2="-241.4104" gradientTransform="matrix(0.9956 9.380000e-02 9.380000e-02 -0.9956 22.4278 -226.5406)">
		<stop  offset="0" style="stop-color:#BECFE3"/>
		<stop  offset="0.4297" style="stop-color:#D3DEEB"/>
		<stop  offset="1" style="stop-color:#F4F6F9"/>
	</linearGradient>
	<path class="st1" d="M220.6,31l-14.3-1.3l-1.4,14.4l14.3,1.3c4,0.4,7.5-2.5,7.9-6.5l0,0C227.5,34.9,224.6,31.3,220.6,31z"/>
	<path class="st2" d="M187,40.9c1.1,1,2.6,1.7,4.2,1.9l11,1L218,30.7l-16.8-1.6L187,40.9z"/>
	<path class="st2" d="M206.2,44.2l5.6,0.5l13.6-11.2c-0.9-1.1-2.1-1.9-3.5-2.3L206.2,44.2z"/>
</g>
<g>
	<g>
		
			<linearGradient id="SVGID_3_" gradientUnits="userSpaceOnUse" x1="218.983" y1="255.4028" x2="96.2019" y2="-251.7375" gradientTransform="matrix(1 0 0 -1 0 -210.7403)">
			<stop  offset="0" style="stop-color:#40F8EC"/>
			<stop  offset="1" style="stop-color:#00CDAB"/>
		</linearGradient>
		<path class="st3" d="M578.6-465.3c-50.7-16.7-92.3-59.5-107.1-110.9c-5-17.6-7.6-35.9-14.5-52.9c-13.9-33.7-45.4-57.7-79.4-70.3
			c-5.4-1.9-10.7-3.8-16.4-5.4h-805.6c-34,34.7-51.4,86.3-42.2,134.2c13.5,71.8,75,122.6,128.2,172.3
			c58.3,54.8,113.1,121,124.4,200.4c12.9,92-8.2,273.5-295.8,526.1L725.8,512.6v-999.3C683.2-457.8,627.5-449.3,578.6-465.3z"/>
	</g>
	<g>
		
			<linearGradient id="SVGID_4_" gradientUnits="userSpaceOnUse" x1="766.6719" y1="-278.5978" x2="-983.1066" y2="-874.7037" gradientTransform="matrix(1 0 0 -1 0 -210.7403)">
			<stop  offset="0" style="stop-color:#40F8EC"/>
			<stop  offset="1" style="stop-color:#00CDAB"/>
		</linearGradient>
		<path class="st4" d="M-1058.3,512.6H725.5v-629.1c-91.7,46.3-195,69.9-297.7,68c-97-1.9-192.2-25.8-288.6-37.2
			C42.7-97-60-94.5-144.7-46.9C-206.8-12.3-254,43.5-300.6,97c-101.8,116.3-207.6,234.1-343.1,307.8
			C-829.3,505.6-1058.3,512.6-1058.3,512.6z"/>
	</g>
	<g>
		<path class="st5" d="M361.9-448c-55.8,0-100.8,45.1-100.8,100.8s45.1,100.8,100.8,100.8s100.8-45.1,100.8-100.8
			S417.7-448,361.9-448z M422.1-330.5h-42.8v41.9c0,9.8-7.9,17.3-17.3,17.3c-9.8,0-17.3-7.6-17.3-17.3v-41.9h-42.8
			c-9.1,0-16.7-7.2-16.7-16.7c0-9.1,7.6-16.7,16.7-16.7h42.8v-41.6c0-9.8,7.6-17.3,17.3-17.3c9.5,0,17.3,7.6,17.3,17.3v41.9h42.8
			c9.1,0,16.7,7.6,16.7,16.7C438.8-337.7,431.2-330.5,422.1-330.5z"/>
		<g class="st6">
			<path class="st7" d="M380.2-446.1l-24.6,24.6c1.9-0.6,4.1-1.3,6.3-1.3c9.5,0,17.3,7.6,17.3,17.3v41.9h39.7l31.8-31.8
				C436.2-421.5,410.4-440.7,380.2-446.1z"/>
			<path class="st7" d="M344.9-330.5H302c-9.1,0-16.7-7.2-16.7-16.7c0-1.9,0.3-3.5,0.9-5L263-328.9c5.7,30.2,24.6,56.1,50.7,70.3
				l31.2-31.2V-330.5z"/>
			<path class="st7" d="M296.7-362.6c1.6-0.6,3.5-0.9,5-0.9h42.8v-41.9c0-2.2,0.3-4.4,1.3-6.3L296.7-362.6z"/>
			<polygon class="st7" points="379.2,-324.2 385.5,-330.5 379.2,-330.5 			"/>
		</g>
		<path class="st8" d="M462.7-348.8c0-7.9-1.3-15.4-2.8-22.7L438.4-350c0.3,0.9,0.3,1.9,0.3,3.2c0,9.5-7.6,16.7-16.7,16.7h-3.2
			l-39.7,39.7v2.5c0,9.8-7.9,17.3-17.3,17.3c-0.6,0-1.6,0-2.2-0.3l-22.4,22.4c7.2,1.9,14.8,2.8,22.7,2.8L462.7-348.8z"/>
	</g>
	<g class="st9">
		
			<linearGradient id="SVGID_5_" gradientUnits="userSpaceOnUse" x1="-94.138" y1="258.6126" x2="-94.138" y2="-624.9111" gradientTransform="matrix(1 0 0 -1 0 -210.7403)">
			<stop  offset="3.582200e-04" style="stop-color:#294077"/>
			<stop  offset="0.1871" style="stop-color:#2C457C"/>
			<stop  offset="1" style="stop-color:#395A8F"/>
		</linearGradient>
		<rect x="-101.2" y="-492.1" class="st10" width="14.2" height="897.2"/>
		
			<linearGradient id="SVGID_6_" gradientUnits="userSpaceOnUse" x1="538.4725" y1="258.6126" x2="538.4725" y2="-624.9111" gradientTransform="matrix(1 0 0 -1 0 -210.7403)">
			<stop  offset="3.582200e-04" style="stop-color:#294077"/>
			<stop  offset="0.1871" style="stop-color:#2C457C"/>
			<stop  offset="1" style="stop-color:#395A8F"/>
		</linearGradient>
		<rect x="531.4" y="-492.1" class="st11" width="14.2" height="897.2"/>
		
			<linearGradient id="SVGID_7_" gradientUnits="userSpaceOnUse" x1="-140.6071" y1="261.8273" x2="579.2708" y2="261.8273" gradientTransform="matrix(1 0 0 -1 0 -210.7403)">
			<stop  offset="3.582200e-04" style="stop-color:#294077"/>
			<stop  offset="0.1871" style="stop-color:#2C457C"/>
			<stop  offset="1" style="stop-color:#395A8F"/>
		</linearGradient>
		<path class="st12" d="M559.4-452.7h-680.2c-11,0-19.8-8.8-19.8-19.8l0,0c0-11,8.8-19.8,19.8-19.8h680.2c11,0,19.8,8.8,19.8,19.8
			l0,0C579.3-461.5,570.4-452.7,559.4-452.7z"/>
		
			<linearGradient id="SVGID_8_" gradientUnits="userSpaceOnUse" x1="-87.0495" y1="31.8445" x2="531.3839" y2="31.8445" gradientTransform="matrix(1 0 0 -1 0 -210.7403)">
			<stop  offset="3.582200e-04" style="stop-color:#294077"/>
			<stop  offset="0.1871" style="stop-color:#2C457C"/>
			<stop  offset="1" style="stop-color:#395A8F"/>
		</linearGradient>
		<rect x="-87" y="-249.8" class="st13" width="618.4" height="14.5"/>
		
			<linearGradient id="SVGID_9_" gradientUnits="userSpaceOnUse" x1="-87.0495" y1="-210.4252" x2="531.3839" y2="-210.4252" gradientTransform="matrix(1 0 0 -1 0 -210.7403)">
			<stop  offset="3.582200e-04" style="stop-color:#294077"/>
			<stop  offset="0.1871" style="stop-color:#2C457C"/>
			<stop  offset="1" style="stop-color:#395A8F"/>
		</linearGradient>
		<rect x="-87" y="-7.6" class="st14" width="618.4" height="14.5"/>
		
			<linearGradient id="SVGID_10_" gradientUnits="userSpaceOnUse" x1="-87.0495" y1="-452.6949" x2="531.3839" y2="-452.6949" gradientTransform="matrix(1 0 0 -1 0 -210.7403)">
			<stop  offset="3.582200e-04" style="stop-color:#294077"/>
			<stop  offset="0.1871" style="stop-color:#2C457C"/>
			<stop  offset="1" style="stop-color:#395A8F"/>
		</linearGradient>
		<rect x="-87" y="234.7" class="st15" width="618.4" height="14.5"/>
	</g>
	<g>
		
			<linearGradient id="SVGID_11_" gradientUnits="userSpaceOnUse" x1="-547.8583" y1="-386.4723" x2="-241.7103" y2="-372.3426" gradientTransform="matrix(1 0 0 -1 0 -210.7403)">
			<stop  offset="3.582200e-04" style="stop-color:#294077"/>
			<stop  offset="0.1871" style="stop-color:#2C457C"/>
			<stop  offset="1" style="stop-color:#395A8F"/>
		</linearGradient>
		<path class="st16" d="M-152.9,367V-47.6h-96.4C-279.9,48.8-356.1,175.5-529.7,328c-17,13.5-34.7,26.8-52.9,39.1H-152.9z"/>
		
			<linearGradient id="SVGID_12_" gradientUnits="userSpaceOnUse" x1="-249.2977" y1="-140.4852" x2="-126.5899" y2="-140.4852" gradientTransform="matrix(1 0 0 -1 0 -210.7403)">
			<stop  offset="3.582200e-04" style="stop-color:#294077"/>
			<stop  offset="0.1871" style="stop-color:#2C457C"/>
			<stop  offset="1" style="stop-color:#395A8F"/>
		</linearGradient>
		<path class="st17" d="M-149.1-47.6c12.6,0,22.7-10.1,22.7-22.7s-10.1-22.7-22.7-22.7h-88.5c-2.8,14.2-6.6,29.3-11.7,45.4
			L-149.1-47.6L-149.1-47.6z"/>
		<path class="st18" d="M-152.9,174.9V-47.6h-15.8l-168.9,168.9C-381.9,183.4-444,252.7-529.7,328c-17,13.5-34.7,26.8-52.9,39.1
			h237.5L-152.9,174.9z"/>
		<polygon class="st18" points="-233.9,367 -152.9,285.7 -152.9,220.8 -298.8,367 		"/>
		
			<linearGradient id="SVGID_13_" gradientUnits="userSpaceOnUse" x1="-416.4292" y1="-435.9984" x2="-416.4292" y2="-542.8613" gradientTransform="matrix(1 0 0 -1 0 -210.7403)">
			<stop  offset="3.582200e-04" style="stop-color:#294077"/>
			<stop  offset="0.1871" style="stop-color:#2C457C"/>
			<stop  offset="1" style="stop-color:#395A8F"/>
		</linearGradient>
		<path class="st19" d="M-419.7,221.5V367h6.6V214.5C-415.3,216.8-417.5,219-419.7,221.5z"/>
	</g>
	<g>
		
			<linearGradient id="SVGID_14_" gradientUnits="userSpaceOnUse" x1="35.6801" y1="148.3871" x2="35.6801" y2="87.6695" gradientTransform="matrix(1 0 0 -1 0 -210.7403)">
			<stop  offset="3.582200e-04" style="stop-color:#294077"/>
			<stop  offset="0.1871" style="stop-color:#2C457C"/>
			<stop  offset="1" style="stop-color:#395A8F"/>
		</linearGradient>
		<path class="st20" d="M115.8-278.2c-18-21.4,7.2-21.1-4.7-34.3C99.5-325.1,99.8-322,95-344.7c0-1.6-4.4-20.8-6-27.7
			C85.6-386.9,68.9-413,34.9-413c-32.1,0-48.5,26.1-52.6,41.6c-1.6,6.6-6.3,25.2-6,27.1c-4.7,24.3-4.4,19.5-16.1,32.1
			c-12,13.2,12.9,12.9-4.7,34.3c-18,21.4,9.1,35,26.8,35c17.3,0,51.4,0,53.2,0h0.3c1.6,0,35.9,0,53.2,0
			C107-243.2,133.8-256.8,115.8-278.2z"/>
		
			<linearGradient id="SVGID_15_" gradientUnits="userSpaceOnUse" x1="36.2907" y1="-216.7519" x2="36.2907" y2="-579.2849" gradientTransform="matrix(1 0 0 -1 0 -210.7403)">
			<stop  offset="3.582200e-04" style="stop-color:#294077"/>
			<stop  offset="0.1871" style="stop-color:#2C457C"/>
			<stop  offset="1" style="stop-color:#395A8F"/>
		</linearGradient>
		<path class="st21" d="M55-5H16.9h-53.6L-48,115l12.9,248.9h28.4L22.6,85.7C23.2,79.1,28.9,74,35.5,74l0,0
			c7.6,0,13.9,5.7,14.8,13.2l29,276.6h28.4L120.6,115L109.2-5H55z"/>
		
			<linearGradient id="SVGID_16_" gradientUnits="userSpaceOnUse" x1="278.0512" y1="-88.208" x2="245.0336" y2="-112.8483" gradientTransform="matrix(1 0 0 -1 0 -210.7403)">
			<stop  offset="0" style="stop-color:#FFECD1"/>
			<stop  offset="0.5703" style="stop-color:#FFCBB1"/>
			<stop  offset="1" style="stop-color:#FFB69E"/>
		</linearGradient>
		<path class="st22" d="M239-111.8c0,0,6-14.8,10.1-13.2c4.1,1.6-1.3,12.3,1.3,13.2c2.5,0.9,19.2-5.4,22.1-3.8s7.2,2.8,4.1,13.2
			C273.7-92,266.1-86.6,258.2-87C250.4-87.3,239-86,239-86S227.4-100.5,239-111.8z"/>
		
			<linearGradient id="SVGID_17_" gradientUnits="userSpaceOnUse" x1="135.6805" y1="-46.6309" x2="178.5408" y2="-108.8802" gradientTransform="matrix(1 0 0 -1 0 -210.7403)">
			<stop  offset="0" style="stop-color:#BECFE3"/>
			<stop  offset="0.4297" style="stop-color:#D3DEEB"/>
			<stop  offset="1" style="stop-color:#F4F6F9"/>
		</linearGradient>
		<path class="st23" d="M132.5-227.5l24.3,102.1c1.9,7.9,8.8,13.5,17,13.5h64.9v25.5l-94.2,15.4c-7.2,1.3-14.2-2.5-17.6-8.8
			l-36.5-73.1L132.5-227.5z"/>
		
			<linearGradient id="SVGID_18_" gradientUnits="userSpaceOnUse" x1="35.8174" y1="-290.7881" x2="35.8174" y2="-3.9229" gradientTransform="matrix(1 0 0 -1 0 -210.7403)">
			<stop  offset="0" style="stop-color:#BECFE3"/>
			<stop  offset="0.4297" style="stop-color:#D3DEEB"/>
			<stop  offset="1" style="stop-color:#F4F6F9"/>
		</linearGradient>
		<path class="st24" d="M121.2-241l-46.9-19.5c-25.5-13.9-52.6-13.9-78.1,0l-48.2,23.9c-8.2,4.1-12.6,13.2-11,22.1l32.1,126
			c1.3,7.2,1.6,14.8,0.3,22.4c-5.4,31.2-28,122.6-28,200.4h73.4v-149h41v149h79.4c0-74.7-24.3-162.6-31.2-196.6
			c-1.9-10.1-2.2-20.2-0.3-30.2L133.5-219C134.7-228.1,129.7-237.2,121.2-241z"/>
		
			<linearGradient id="SVGID_19_" gradientUnits="userSpaceOnUse" x1="35.188" y1="13.6585" x2="35.188" y2="-73.2757" gradientTransform="matrix(1 0 0 -1 0 -210.7403)">
			<stop  offset="3.582200e-04" style="stop-color:#294077"/>
			<stop  offset="0.1871" style="stop-color:#2C457C"/>
			<stop  offset="1" style="stop-color:#395A8F"/>
		</linearGradient>
		<path class="st25" d="M14.7-267.2V-5h41v-262.1C41.8-271.9,28.3-271.9,14.7-267.2z"/>
		
			<linearGradient id="SVGID_20_" gradientUnits="userSpaceOnUse" x1="24.949" y1="39.2628" x2="24.949" y2="30.2428" gradientTransform="matrix(1 0 0 -1 0 -210.7403)">
			<stop  offset="3.582200e-04" style="stop-color:#294077"/>
			<stop  offset="0.1871" style="stop-color:#2C457C"/>
			<stop  offset="1" style="stop-color:#395A8F"/>
		</linearGradient>
		<path class="st26" d="M29.8-270.3c-5,0.3-10.1,1.3-15.1,2.8v36.9l20.5-18.9L29.8-270.3z"/>
		
			<linearGradient id="SVGID_21_" gradientUnits="userSpaceOnUse" x1="45.112" y1="41.2388" x2="45.112" y2="25.2442" gradientTransform="matrix(1 0 0 -1 0 -210.7403)">
			<stop  offset="3.582200e-04" style="stop-color:#294077"/>
			<stop  offset="0.1871" style="stop-color:#2C457C"/>
			<stop  offset="1" style="stop-color:#395A8F"/>
		</linearGradient>
		<path class="st27" d="M34.9-249.5l20.5,18.9v-36.9c-5-1.6-10.1-2.5-15.1-2.8L34.9-249.5z"/>
		
			<linearGradient id="SVGID_22_" gradientUnits="userSpaceOnUse" x1="-13.3061" y1="15.147" x2="83.2551" y2="15.147" gradientTransform="matrix(1 0 0 -1 0 -210.7403)">
			<stop  offset="3.582200e-04" style="stop-color:#294077"/>
			<stop  offset="0.1871" style="stop-color:#2C457C"/>
			<stop  offset="1" style="stop-color:#395A8F"/>
		</linearGradient>
		<path class="st28" d="M75.5-179.6c0,0,32.1-92.6-40.3-92.6c-55.8,0-47.6,60.5-47.6,60.5"/>
		
			<linearGradient id="SVGID_23_" gradientUnits="userSpaceOnUse" x1="-25.0872" y1="-226.7064" x2="-25.0872" y2="-212.7552" gradientTransform="matrix(1 0 0 -1 0 -210.7403)">
			<stop  offset="0" style="stop-color:#BECFE3"/>
			<stop  offset="0.4297" style="stop-color:#D3DEEB"/>
			<stop  offset="1" style="stop-color:#F4F6F9"/>
		</linearGradient>
		<path class="st29" d="M-25.9,18.6c0,0,3.8-1.6,5-13.5c1.3-12-8.5-2.2-8.5-2.2L-25.9,18.6z"/>
		
			<linearGradient id="SVGID_24_" gradientUnits="userSpaceOnUse" x1="34.873" y1="42.0863" x2="34.873" y2="63.0021" gradientTransform="matrix(1 0 0 -1 0 -210.7403)">
			<stop  offset="0" style="stop-color:#FFECD1"/>
			<stop  offset="0.5703" style="stop-color:#FFCBB1"/>
			<stop  offset="1" style="stop-color:#FFB69E"/>
		</linearGradient>
		<path class="st30" d="M38-323.2h-6.3c-9.5,0-17.3,7.9-17.3,17.3v38.8c0,9.5,7.9,17.3,17.3,17.3H38c9.5,0,17.3-7.9,17.3-17.3v-38.8
			C55.4-315.4,47.8-323.2,38-323.2z"/>
		
			<linearGradient id="SVGID_25_" gradientUnits="userSpaceOnUse" x1="-44.8521" y1="-83.3654" x2="-64.817" y2="-198.4028" gradientTransform="matrix(1 0 0 -1 0 -210.7403)">
			<stop  offset="0" style="stop-color:#BECFE3"/>
			<stop  offset="0.4297" style="stop-color:#D3DEEB"/>
			<stop  offset="1" style="stop-color:#F4F6F9"/>
		</linearGradient>
		<path class="st31" d="M-58.1-231.9l-7.6,9.8c-1.6,2.2-2.8,4.7-3.5,7.2L-97.1-81c-1.9,8.5,0.6,17.6,6.3,24.3l64.9,75.3
			c0,0-4.4-25.2,1.6-41.6l-26.8-38.8c-3.2-4.4-3.8-9.8-2.2-14.8l14.2-44.1l-23.9-93.9c0,0-0.9-4.1,0.3-8.8
			C-61.8-227.5-58.1-231.9-58.1-231.9z"/>
		
			<linearGradient id="SVGID_26_" gradientUnits="userSpaceOnUse" x1="-8.3184" y1="-27.5415" x2="14.5068" y2="-27.5415" gradientTransform="matrix(1 0 0 -1 0 -210.7403)">
			<stop  offset="0" style="stop-color:#BECFE3"/>
			<stop  offset="0.4297" style="stop-color:#D3DEEB"/>
			<stop  offset="1" style="stop-color:#F4F6F9"/>
		</linearGradient>
		<polygon class="st32" points="14.7,-98.9 -4.2,-201 8.7,-217.7 -8.6,-226.5 14.7,-267.5 		"/>
		
			<linearGradient id="SVGID_27_" gradientUnits="userSpaceOnUse" x1="-9.0759" y1="133.7691" x2="-9.0759" y2="117.963" gradientTransform="matrix(1 0 0 -1 0 -210.7403)">
			<stop  offset="0" style="stop-color:#FFECD1"/>
			<stop  offset="0.5703" style="stop-color:#FFCBB1"/>
			<stop  offset="1" style="stop-color:#FFB69E"/>
		</linearGradient>
		<path class="st33" d="M-5.5-346.9h-5c-1.3,0-2.2,1.3-2.2,2.8v13.9c0,1.6,0.9,2.8,2.2,2.8h4.4L-5.5-346.9z"/>
		
			<linearGradient id="SVGID_28_" gradientUnits="userSpaceOnUse" x1="108.597" y1="-27.5415" x2="131.4226" y2="-27.5415" gradientTransform="matrix(-1 0 0 -1 186.921 -210.7403)">
			<stop  offset="0" style="stop-color:#BECFE3"/>
			<stop  offset="0.4297" style="stop-color:#D3DEEB"/>
			<stop  offset="1" style="stop-color:#F4F6F9"/>
		</linearGradient>
		<polygon class="st34" points="55.4,-98.9 73.9,-201 61.3,-217.7 78.7,-226.5 55.4,-267.5 		"/>
		
			<linearGradient id="SVGID_29_" gradientUnits="userSpaceOnUse" x1="78.8218" y1="131.824" x2="78.8218" y2="115.1124" gradientTransform="matrix(1 0 0 -1 0 -210.7403)">
			<stop  offset="0" style="stop-color:#FFECD1"/>
			<stop  offset="0.5703" style="stop-color:#FFCBB1"/>
			<stop  offset="1" style="stop-color:#FFB69E"/>
		</linearGradient>
		<path class="st35" d="M80.2-346.9h-5l0.6,19.2h4.4c1.3,0,2.2-1.3,2.2-2.8v-13.9C82.4-345.9,81.5-346.9,80.2-346.9z"/>
		
			<linearGradient id="SVGID_30_" gradientUnits="userSpaceOnUse" x1="-8.2539" y1="-183.4719" x2="-33.402" y2="-257.0189" gradientTransform="matrix(1 0 0 -1 0 -210.7403)">
			<stop  offset="3.582200e-04" style="stop-color:#294077"/>
			<stop  offset="0.1871" style="stop-color:#2C457C"/>
			<stop  offset="1" style="stop-color:#395A8F"/>
		</linearGradient>
		<polygon class="st36" points="-8.9,-98.9 6.8,2.2 -26.9,5.4 		"/>
		<g>
			
				<linearGradient id="SVGID_31_" gradientUnits="userSpaceOnUse" x1="71.1032" y1="110.2494" x2="71.1032" y2="37.6945" gradientTransform="matrix(1 0 0 -1 0 -210.7403)">
				<stop  offset="0" style="stop-color:#FFECD1"/>
				<stop  offset="0.5703" style="stop-color:#FFCBB1"/>
				<stop  offset="1" style="stop-color:#FFB69E"/>
			</linearGradient>
			<path class="st37" d="M71.1-391.9C71.1-391.9,71.1-392.2,71.1-391.9L71.1-391.9L71.1-391.9z"/>
			
				<linearGradient id="SVGID_32_" gradientUnits="userSpaceOnUse" x1="35.188" y1="108.5214" x2="35.188" y2="38.7399" gradientTransform="matrix(1 0 0 -1 0 -210.7403)">
				<stop  offset="0" style="stop-color:#FFECD1"/>
				<stop  offset="0.5703" style="stop-color:#FFCBB1"/>
				<stop  offset="1" style="stop-color:#FFB69E"/>
			</linearGradient>
			<path class="st38" d="M59.8-382.8c-22.1,33.7-62.1,27.1-69.3,28L-7-310c1.3,25.2,19.8,39.4,41.6,39.4h1.3
				c21.4,0,40-14.2,41.6-39.4l2.5-44.4C66.1-366.1,60.7-374.6,59.8-382.8z"/>
		</g>
		<path class="st7" d="M47.8-309.7H22.3c-1.9,0-3.2,1.6-2.8,3.5c1.6,7.2,7.9,12.3,15.4,12.3s13.9-5.4,15.4-12.3
			C50.9-307.8,49.7-309.7,47.8-309.7z"/>
		<g>
			
				<linearGradient id="SVGID_33_" gradientUnits="userSpaceOnUse" x1="191.3491" y1="-41.0839" x2="200.7658" y2="-41.0839" gradientTransform="matrix(-0.9764 0.2158 -0.2158 -0.9764 190.3879 -247.3465)">
				<stop  offset="0" style="stop-color:#BECFE3"/>
				<stop  offset="0.4297" style="stop-color:#D3DEEB"/>
				<stop  offset="1" style="stop-color:#F4F6F9"/>
			</linearGradient>
			<path class="st39" d="M8.1-146.5c-0.3,0-0.9,0-0.9-0.3c-0.3-0.3-0.3-1.3,0.3-1.6c0.3-0.3,5.7-4.4,4.4-11.3
				c-1.3-7.6-5-22.1-5-22.4c0-0.6,0.3-1.3,0.6-1.3c0.3,0,1.3,0.3,1.3,0.6c0,0,3.5,14.8,5,22.4c1.6,8.2-4.7,13.2-5,13.2
				C8.4-146.5,8.4-146.5,8.1-146.5z"/>
		</g>
		
			<linearGradient id="SVGID_34_" gradientUnits="userSpaceOnUse" x1="-11.9341" y1="-194.4072" x2="-19.3101" y2="-215.9777" gradientTransform="matrix(1 0 0 -1 0 -210.7403)">
			<stop  offset="0" style="stop-color:#FFECD1"/>
			<stop  offset="0.5703" style="stop-color:#FFCBB1"/>
			<stop  offset="1" style="stop-color:#FFB69E"/>
		</linearGradient>
		<path class="st40" d="M-24.4-24.3c0,0,1.3-12,6-11.3c4.7,0.6,3.5,9.1,3.5,9.1l16.4-6c0,0,5.4,7.9,1.6,18.9S-3.6,4.7-27.2,5.7
			C-27.5,5.4-29.4-5.7-24.4-24.3z"/>
		
			<linearGradient id="SVGID_35_" gradientUnits="userSpaceOnUse" x1="-24.3501" y1="-187.6517" x2="-32.3764" y2="-211.1257" gradientTransform="matrix(1 0 0 -1 0 -210.7403)">
			<stop  offset="0" style="stop-color:#FFECD1"/>
			<stop  offset="0.5703" style="stop-color:#FFCBB1"/>
			<stop  offset="1" style="stop-color:#FFB69E"/>
		</linearGradient>
		<path class="st41" d="M-24.7-23.3c-0.6,2.5-1.3,4.7-1.6,6.9c0.3-2.2,0.9-4.4,1.9-6.6L-24.7-23.3z"/>
		
			<linearGradient id="SVGID_36_" gradientUnits="userSpaceOnUse" x1="-21.5094" y1="-188.6227" x2="-29.5361" y2="-212.097" gradientTransform="matrix(1 0 0 -1 0 -210.7403)">
			<stop  offset="0" style="stop-color:#FFECD1"/>
			<stop  offset="0.5703" style="stop-color:#FFCBB1"/>
			<stop  offset="1" style="stop-color:#FFB69E"/>
		</linearGradient>
		<path class="st42" d="M-27.5,0c0-3.2,0-6.6,0.3-10.1C-27.5-6-27.5-2.5-27.5,0z"/>
		
			<linearGradient id="SVGID_37_" gradientUnits="userSpaceOnUse" x1="-16.2495" y1="-166.8916" x2="-31.3293" y2="-210.9935" gradientTransform="matrix(1 0 0 -1 0 -210.7403)">
			<stop  offset="0" style="stop-color:#FFECD1"/>
			<stop  offset="0.5703" style="stop-color:#FFCBB1"/>
			<stop  offset="1" style="stop-color:#FFB69E"/>
		</linearGradient>
		<path class="st43" d="M-27.2-10.1c0.3-1.9,0.6-4.1,0.9-6.3C-26.6-14.2-26.9-12.3-27.2-10.1z"/>
		
			<linearGradient id="SVGID_38_" gradientUnits="userSpaceOnUse" x1="-31.9262" y1="-156.295" x2="-50.3753" y2="-210.2503" gradientTransform="matrix(1 0 0 -1 0 -210.7403)">
			<stop  offset="3.582200e-04" style="stop-color:#294077"/>
			<stop  offset="0.1871" style="stop-color:#2C457C"/>
			<stop  offset="1" style="stop-color:#395A8F"/>
		</linearGradient>
		<path class="st44" d="M-18.4-35.9c4.7,0.6,3.5,9.1,3.5,9.1L0.2-37.2l-9.5-61.7l-47.3,5l5,32.4L-25-23c0-0.3,0.3-0.6,0.3-1.3
			C-24.4-24.3-23.1-36.5-18.4-35.9z"/>
		
			<linearGradient id="SVGID_39_" gradientUnits="userSpaceOnUse" x1="-59.2915" y1="-585.3999" x2="-7.1008" y2="-585.3999" gradientTransform="matrix(1 0 0 -1 0 -210.7403)">
			<stop  offset="0" style="stop-color:#BECFE3"/>
			<stop  offset="0.4297" style="stop-color:#D3DEEB"/>
			<stop  offset="1" style="stop-color:#F4F6F9"/>
		</linearGradient>
		<path class="st45" d="M-35.4,364.2c0,0-6,4.1-18.3,7.9c-8.5,2.5-7.2,12.3,5.4,12.9c12.9,0.6,25.5-0.6,29.6-7.9
			c4.1-7.6,12-3.2,11.3-12.9H-35.4z"/>
		<g>
			
				<linearGradient id="SVGID_40_" gradientUnits="userSpaceOnUse" x1="-3.4828" y1="-40.8481" x2="5.9287" y2="-40.8481" gradientTransform="matrix(0.9764 -0.2158 -0.2158 -0.9764 -18.8921 -200.6979)">
				<stop  offset="0" style="stop-color:#BECFE3"/>
				<stop  offset="0.4297" style="stop-color:#D3DEEB"/>
				<stop  offset="1" style="stop-color:#F4F6F9"/>
			</linearGradient>
			<path class="st46" d="M-1.4-144.3h-0.3c-0.3,0-8.2-1.9-10.1-10.1c-1.9-7.6-5-22.4-5-22.4c0-0.6,0.3-0.9,0.9-1.3
				c0.6,0,1.3,0.3,1.3,0.9c0,0,3.2,14.8,5,22.4c1.9,6.9,8.5,8.5,8.5,8.5c0.6,0,0.9,0.6,0.6,1.3C-0.7-144.6-1-144.3-1.4-144.3z"/>
		</g>
		
			<linearGradient id="SVGID_41_" gradientUnits="userSpaceOnUse" x1="-26.7219" y1="-585.3999" x2="25.4688" y2="-585.3999" gradientTransform="matrix(-1 0 0 -1 104.4017 -210.7403)">
			<stop  offset="0" style="stop-color:#BECFE3"/>
			<stop  offset="0.4297" style="stop-color:#D3DEEB"/>
			<stop  offset="1" style="stop-color:#F4F6F9"/>
		</linearGradient>
		<path class="st47" d="M107.3,364.2c0,0,6,4.1,18.3,7.9c8.5,2.5,7.2,12.3-5.4,12.9c-12.9,0.6-25.5-0.6-29.6-7.9
			c-4.1-7.6-12-3.2-11.3-12.9H107.3z"/>
		
			<linearGradient id="SVGID_42_" gradientUnits="userSpaceOnUse" x1="3.3772" y1="37.7648" x2="32.7853" y2="37.7648" gradientTransform="matrix(0.9777 -0.2099 -0.2585 -1.2041 -15.6956 -146.1289)">
			<stop  offset="3.582200e-04" style="stop-color:#294077"/>
			<stop  offset="0.1871" style="stop-color:#2C457C"/>
			<stop  offset="1" style="stop-color:#395A8F"/>
		</linearGradient>
		<path class="st48" d="M7.1-183.4c0.9-16.4-5-29.9-18.3-26.8c-12,2.8-13.5,17.3-5.7,32.1"/>
		<circle class="st49" cx="76.1" cy="-178.3" r="9.8"/>
		
			<ellipse transform="matrix(0.2425 -0.9701 0.9701 0.2425 139.5299 -110.6799)" class="st49" cx="-1.1" cy="-144.7" rx="2.5" ry="2.2"/>
		<ellipse transform="matrix(0.9701 -0.2425 0.2425 0.9701 35.8944 -2.612)" class="st49" cx="7.3" cy="-147.1" rx="2.2" ry="2.5"/>
		
			<linearGradient id="SVGID_43_" gradientUnits="userSpaceOnUse" x1="70.2179" y1="-32.4248" x2="82.268" y2="-32.4248" gradientTransform="matrix(1 0 0 -1 0 -210.7403)">
			<stop  offset="0" style="stop-color:#BECFE3"/>
			<stop  offset="0.4297" style="stop-color:#D3DEEB"/>
			<stop  offset="1" style="stop-color:#F4F6F9"/>
		</linearGradient>
		<circle class="st50" cx="76.1" cy="-178.3" r="6"/>
		
			<linearGradient id="SVGID_44_" gradientUnits="userSpaceOnUse" x1="-21.5201" y1="-296.6558" x2="-21.5201" y2="-256.199" gradientTransform="matrix(1 0 0 -1 0 -210.7403)">
			<stop  offset="0" style="stop-color:#BECFE3"/>
			<stop  offset="0.4297" style="stop-color:#D3DEEB"/>
			<stop  offset="1" style="stop-color:#F4F6F9"/>
		</linearGradient>
		<polygon class="st51" points="-7,89.2 -37,89.2 -36,45.7 -6.1,45.7 		"/>
		
			<linearGradient id="SVGID_45_" gradientUnits="userSpaceOnUse" x1="-20.7325" y1="-262.6735" x2="-20.7325" y2="-256.4561" gradientTransform="matrix(1 0 0 -1 0 -210.7403)">
			<stop  offset="0" style="stop-color:#BECFE3"/>
			<stop  offset="0.4297" style="stop-color:#D3DEEB"/>
			<stop  offset="1" style="stop-color:#F4F6F9"/>
		</linearGradient>
		<polygon class="st52" points="-5.5,52.3 -36.6,52.3 -36.3,45.7 -4.8,45.7 		"/>
		
			<linearGradient id="SVGID_46_" gradientUnits="userSpaceOnUse" x1="53.6047" y1="-296.6558" x2="53.6047" y2="-256.199" gradientTransform="matrix(-1 0 0 -1 144.8707 -210.7403)">
			<stop  offset="0" style="stop-color:#BECFE3"/>
			<stop  offset="0.4297" style="stop-color:#D3DEEB"/>
			<stop  offset="1" style="stop-color:#F4F6F9"/>
		</linearGradient>
		<polygon class="st53" points="76.8,89.2 106.7,89.2 105.8,45.7 75.8,45.7 		"/>
		
			<linearGradient id="SVGID_47_" gradientUnits="userSpaceOnUse" x1="54.2349" y1="-262.6735" x2="54.2349" y2="-256.4561" gradientTransform="matrix(-1 0 0 -1 144.8707 -210.7403)">
			<stop  offset="0" style="stop-color:#BECFE3"/>
			<stop  offset="0.4297" style="stop-color:#D3DEEB"/>
			<stop  offset="1" style="stop-color:#F4F6F9"/>
		</linearGradient>
		<polygon class="st54" points="75.2,52.3 106.4,52.3 106.1,45.7 74.9,45.7 		"/>
	</g>
	<g>
		
			<linearGradient id="SVGID_48_" gradientUnits="userSpaceOnUse" x1="362.0473" y1="-154.925" x2="362.0473" y2="-59.0904" gradientTransform="matrix(1 0 0 -1 0 -210.7403)">
			<stop  offset="0" style="stop-color:#BECFE3"/>
			<stop  offset="0.4297" style="stop-color:#D3DEEB"/>
			<stop  offset="1" style="stop-color:#F4F6F9"/>
		</linearGradient>
		<path class="st55" d="M488.5-58.9h-253c-3.8,0-6.9-3.2-6.9-6.9v-88.8c0-3.8,3.2-6.9,6.9-6.9h253c3.8,0,6.9,3.2,6.9,6.9v88.8
			C495.5-62.1,492.3-58.9,488.5-58.9z"/>
		
			<linearGradient id="SVGID_49_" gradientUnits="userSpaceOnUse" x1="361.8897" y1="-175.2681" x2="361.8897" y2="-154.0337" gradientTransform="matrix(1 0 0 -1 0 -210.7403)">
			<stop  offset="0" style="stop-color:#FFA084"/>
			<stop  offset="1" style="stop-color:#FFD35C"/>
		</linearGradient>
		<rect x="246.3" y="-58.9" class="st56" width="231.2" height="22.7"/>
		<g>
			
				<linearGradient id="SVGID_50_" gradientUnits="userSpaceOnUse" x1="241.8575" y1="-48.9879" x2="241.8575" y2="-83.5748" gradientTransform="matrix(1 0 0 -1 0 -210.7403)">
				<stop  offset="0" style="stop-color:#F4F6F9"/>
				<stop  offset="0.5703" style="stop-color:#D3DEEB"/>
				<stop  offset="1" style="stop-color:#BECFE3"/>
			</linearGradient>
			<rect x="237.1" y="-161.9" class="st57" width="9.5" height="103"/>
			
				<linearGradient id="SVGID_51_" gradientUnits="userSpaceOnUse" x1="268.3213" y1="-48.9879" x2="268.3213" y2="-83.5748" gradientTransform="matrix(1 0 0 -1 0 -210.7403)">
				<stop  offset="0" style="stop-color:#F4F6F9"/>
				<stop  offset="0.5703" style="stop-color:#D3DEEB"/>
				<stop  offset="1" style="stop-color:#BECFE3"/>
			</linearGradient>
			<rect x="263.6" y="-161.9" class="st58" width="9.5" height="103"/>
			
				<linearGradient id="SVGID_52_" gradientUnits="userSpaceOnUse" x1="295.1002" y1="-48.9879" x2="295.1002" y2="-83.5748" gradientTransform="matrix(1 0 0 -1 0 -210.7403)">
				<stop  offset="0" style="stop-color:#F4F6F9"/>
				<stop  offset="0.5703" style="stop-color:#D3DEEB"/>
				<stop  offset="1" style="stop-color:#BECFE3"/>
			</linearGradient>
			<rect x="290.4" y="-161.9" class="st59" width="9.5" height="103"/>
			
				<linearGradient id="SVGID_53_" gradientUnits="userSpaceOnUse" x1="321.879" y1="-48.9879" x2="321.879" y2="-83.5748" gradientTransform="matrix(1 0 0 -1 0 -210.7403)">
				<stop  offset="0" style="stop-color:#F4F6F9"/>
				<stop  offset="0.5703" style="stop-color:#D3DEEB"/>
				<stop  offset="1" style="stop-color:#BECFE3"/>
			</linearGradient>
			<rect x="317.2" y="-161.9" class="st60" width="9.5" height="103"/>
			
				<linearGradient id="SVGID_54_" gradientUnits="userSpaceOnUse" x1="348.6578" y1="-48.9879" x2="348.6578" y2="-83.5748" gradientTransform="matrix(1 0 0 -1 0 -210.7403)">
				<stop  offset="0" style="stop-color:#F4F6F9"/>
				<stop  offset="0.5703" style="stop-color:#D3DEEB"/>
				<stop  offset="1" style="stop-color:#BECFE3"/>
			</linearGradient>
			<rect x="343.9" y="-161.9" class="st61" width="9.5" height="103"/>
			
				<linearGradient id="SVGID_55_" gradientUnits="userSpaceOnUse" x1="375.4366" y1="-48.9879" x2="375.4366" y2="-83.5748" gradientTransform="matrix(1 0 0 -1 0 -210.7403)">
				<stop  offset="0" style="stop-color:#F4F6F9"/>
				<stop  offset="0.5703" style="stop-color:#D3DEEB"/>
				<stop  offset="1" style="stop-color:#BECFE3"/>
			</linearGradient>
			<rect x="370.7" y="-161.9" class="st62" width="9.5" height="103"/>
			
				<linearGradient id="SVGID_56_" gradientUnits="userSpaceOnUse" x1="402.2155" y1="-48.9879" x2="402.2155" y2="-83.5748" gradientTransform="matrix(1 0 0 -1 0 -210.7403)">
				<stop  offset="0" style="stop-color:#F4F6F9"/>
				<stop  offset="0.5703" style="stop-color:#D3DEEB"/>
				<stop  offset="1" style="stop-color:#BECFE3"/>
			</linearGradient>
			<rect x="397.5" y="-161.9" class="st63" width="9.5" height="103"/>
			
				<linearGradient id="SVGID_57_" gradientUnits="userSpaceOnUse" x1="428.9943" y1="-48.9879" x2="428.9943" y2="-83.5748" gradientTransform="matrix(1 0 0 -1 0 -210.7403)">
				<stop  offset="0" style="stop-color:#F4F6F9"/>
				<stop  offset="0.5703" style="stop-color:#D3DEEB"/>
				<stop  offset="1" style="stop-color:#BECFE3"/>
			</linearGradient>
			<rect x="424.3" y="-161.9" class="st64" width="9.5" height="103"/>
			
				<linearGradient id="SVGID_58_" gradientUnits="userSpaceOnUse" x1="455.4582" y1="-48.9879" x2="455.4582" y2="-83.5748" gradientTransform="matrix(1 0 0 -1 0 -210.7403)">
				<stop  offset="0" style="stop-color:#F4F6F9"/>
				<stop  offset="0.5703" style="stop-color:#D3DEEB"/>
				<stop  offset="1" style="stop-color:#BECFE3"/>
			</linearGradient>
			<rect x="450.7" y="-161.9" class="st65" width="9.5" height="103"/>
			
				<linearGradient id="SVGID_59_" gradientUnits="userSpaceOnUse" x1="482.237" y1="-48.9879" x2="482.237" y2="-83.5748" gradientTransform="matrix(1 0 0 -1 0 -210.7403)">
				<stop  offset="0" style="stop-color:#F4F6F9"/>
				<stop  offset="0.5703" style="stop-color:#D3DEEB"/>
				<stop  offset="1" style="stop-color:#BECFE3"/>
			</linearGradient>
			<rect x="477.5" y="-161.9" class="st66" width="9.5" height="103"/>
		</g>
		
			<linearGradient id="SVGID_60_" gradientUnits="userSpaceOnUse" x1="262.0225" y1="-513.0286" x2="514.3335" y2="-162.482" gradientTransform="matrix(1 0 0 -1 0 -210.7403)">
			<stop  offset="0" style="stop-color:#FFA084"/>
			<stop  offset="1" style="stop-color:#FFD35C"/>
		</linearGradient>
		<path class="st67" d="M477.5-36.2H246.3l-19.5,20.2c-4.7,4.7-7.2,11.3-7.2,18v317.3c0,26.5,21.4,47.6,47.6,47.6h188.4
			c27.1,0,48.8-22.1,48.8-48.8V1.9c0-6.6-2.5-13.2-7.2-18L477.5-36.2z"/>
		
			<linearGradient id="SVGID_61_" gradientUnits="userSpaceOnUse" x1="333.0673" y1="-283.374" x2="372.1695" y2="-148.2317" gradientTransform="matrix(1 0 0 -1 0 -210.7403)">
			<stop  offset="0" style="stop-color:#FFA084;stop-opacity:0"/>
			<stop  offset="1" style="stop-color:#FFEA40"/>
		</linearGradient>
		<polygon class="st68" points="219.5,42.2 219.5,236.6 484.8,-28.7 477.5,-36.2 297.9,-36.2 		"/>
		
			<linearGradient id="SVGID_62_" gradientUnits="userSpaceOnUse" x1="423.0102" y1="-287.6034" x2="486.8079" y2="-206.6552" gradientTransform="matrix(1 0 0 -1 0 -210.7403)">
			<stop  offset="0" style="stop-color:#FFA084;stop-opacity:0"/>
			<stop  offset="1" style="stop-color:#FFEA40"/>
		</linearGradient>
		<path class="st69" d="M504.6,1.9c0-3.8-0.9-7.6-2.5-11L219.5,273.5v45.7c0,0.3,0,0.6,0,0.9L504.6,35V1.9z"/>
		
			<linearGradient id="SVGID_63_" gradientUnits="userSpaceOnUse" x1="286.0965" y1="-506.1291" x2="379.9839" y2="-346.9979" gradientTransform="matrix(1 0 0 -1 0 -210.7403)">
			<stop  offset="0" style="stop-color:#BECFE3"/>
			<stop  offset="0.4297" style="stop-color:#D3DEEB"/>
			<stop  offset="1" style="stop-color:#F4F6F9"/>
		</linearGradient>
		<rect x="219.5" y="63" class="st70" width="285.1" height="207.3"/>
		
			<linearGradient id="SVGID_64_" gradientUnits="userSpaceOnUse" x1="325.9358" y1="-356.8506" x2="370.4759" y2="-281.359" gradientTransform="matrix(1 0 0 -1 0 -210.7403)">
			<stop  offset="0" style="stop-color:#FFA084"/>
			<stop  offset="1" style="stop-color:#FFD35C"/>
		</linearGradient>
		<rect x="219.5" y="80" class="st71" width="285.1" height="9.8"/>
		
			<linearGradient id="SVGID_65_" gradientUnits="userSpaceOnUse" x1="325.9795" y1="-518.3947" x2="370.5196" y2="-442.9029" gradientTransform="matrix(1 0 0 -1 0 -210.7403)">
			<stop  offset="0" style="stop-color:#FFA084"/>
			<stop  offset="1" style="stop-color:#FFD35C"/>
		</linearGradient>
		<rect x="219.5" y="241.6" class="st72" width="285.1" height="9.8"/>
	</g>
	<g>
		
			<linearGradient id="SVGID_66_" gradientUnits="userSpaceOnUse" x1="215.5548" y1="-587.6287" x2="215.5548" y2="-548.0215" gradientTransform="matrix(1 0 0 -1 0 -210.7403)">
			<stop  offset="0" style="stop-color:#FFA084"/>
			<stop  offset="1" style="stop-color:#FFD35C"/>
		</linearGradient>
		<path class="st73" d="M259.8,328.3h-88.5c-12.6,0-22.7,10.1-22.7,22.7l0,0c0,12.6,10.1,22.7,22.7,22.7h88.5
			c12.6,0,22.7-10.1,22.7-22.7l0,0C282.8,338.7,272.4,328.3,259.8,328.3z"/>
		
			<linearGradient id="SVGID_67_" gradientUnits="userSpaceOnUse" x1="248.6345" y1="-584.7719" x2="248.6345" y2="-550.4284" gradientTransform="matrix(1 0 0 -1 0 -210.7403)">
			<stop  offset="0" style="stop-color:#BECFE3"/>
			<stop  offset="0.4297" style="stop-color:#D3DEEB"/>
			<stop  offset="1" style="stop-color:#F4F6F9"/>
		</linearGradient>
		<path class="st74" d="M259.8,328.3h-45.1V374h45.1c12.6,0,22.7-10.1,22.7-22.7l0,0C282.8,338.7,272.4,328.3,259.8,328.3z"/>
		<path class="st2" d="M157.7,369.2c3.8,2.8,8.5,4.7,13.9,4.7h35l45.7-45.7H199L157.7,369.2z"/>
		<path class="st2" d="M218.9,374h18l39.1-39.1c-3.2-3.2-7.2-5.4-11.7-6L218.9,374z"/>
	</g>
	<g>
		
			<linearGradient id="SVGID_68_" gradientUnits="userSpaceOnUse" x1="167.035" y1="-650.0927" x2="167.035" y2="-610.4828" gradientTransform="matrix(0.8162 -0.5777 -0.5777 -0.8162 -107.439 -84.3931)">
			<stop  offset="0" style="stop-color:#FFA084"/>
			<stop  offset="1" style="stop-color:#FFD35C"/>
		</linearGradient>
		<path class="st75" d="M412.6,284.5l-72.5,51.4c-10.4,7.2-12.6,21.4-5.4,31.8l0,0c7.2,10.4,21.4,12.6,31.8,5.4l72.5-51.4
			c10.4-7.2,12.6-21.4,5.4-31.8l0,0C437.2,279.8,422.7,277.2,412.6,284.5z"/>
		
			<linearGradient id="SVGID_69_" gradientUnits="userSpaceOnUse" x1="200.2233" y1="-647.2432" x2="200.2233" y2="-612.8978" gradientTransform="matrix(0.8162 -0.5777 -0.5777 -0.8162 -107.439 -84.3931)">
			<stop  offset="0" style="stop-color:#BECFE3"/>
			<stop  offset="0.4297" style="stop-color:#D3DEEB"/>
			<stop  offset="1" style="stop-color:#F4F6F9"/>
		</linearGradient>
		<path class="st76" d="M412.6,284.5l-36.9,26.1l26.5,37.2l36.9-26.1c10.4-7.2,12.6-21.4,5.4-31.8l0,0
			C437.2,279.8,422.7,277.2,412.6,284.5z"/>
		<path class="st2" d="M352.8,377.1c4.7,0,9.8-1.3,13.9-4.1l28.4-20.2l11-63.6l-43.5,30.9L352.8,377.1z"/>
		<path class="st2" d="M405.4,345.6l14.5-10.4l9.5-54.5c-4.4-0.6-8.8,0-13.2,1.9L405.4,345.6z"/>
	</g>
</g>
</svg>
